<svg xmlns="http://www.w3.org/2000/svg" viewBox="0 0 48 48" fill="none">
  <path d="M18 12.5c-4.7 0-8.5 3.8-8.5 8.5 0 2.9 1.4 5.5 3.7 7.1.9.7 1.5 1.7 1.6 2.9h6.2v-18.5H18ZM30 12.5c4.7 0 8.5 3.8 8.5 8.5 0 2.9-1.4 5.5-3.7 7.1-.9.7-1.5 1.7-1.6 2.9H27v-18.5h3Z" stroke="#4ea1ff" stroke-width="2.5" stroke-linejoin="round"/>
  <path d="M21 12.5h6v18.5h-6" stroke="#2dd4bf" stroke-width="2.5"/>
  <path d="M18 35h12M20.5 39h7" stroke="#4ea1ff" stroke-width="2.5" stroke-linecap="round"/>
  <circle cx="24" cy="21.5" r="2.5" fill="#2dd4bf" fill-opacity="0.2" stroke="#2dd4bf" stroke-width="2"/>
</svg>
